<svg width="24" height="24" viewBox="0 0 24 24" fill="none" xmlns="http://www.w3.org/2000/svg">
  <path d="M21.805 12.23c0-.68-.061-1.334-.174-1.962H12v3.71h5.5a4.703 4.703 0 0 1-2.04 3.087v2.566h3.29c1.926-1.773 3.055-4.388 3.055-7.4Z" fill="#4285F4"/>
  <path d="M12 22c2.76 0 5.073-.915 6.764-2.469l-3.29-2.566c-.914.612-2.083.974-3.474.974-2.67 0-4.93-1.803-5.738-4.227H2.86v2.646A10 10 0 0 0 12 22Z" fill="#34A853"/>
  <path d="M6.262 13.712A5.998 5.998 0 0 1 5.94 12c0-.595.103-1.173.322-1.712V7.642H2.86a10 10 0 0 0 0 8.716l3.402-2.646Z" fill="#FBBC04"/>
  <path d="M12 6.062c1.502 0 2.85.517 3.912 1.53l2.935-2.936C17.068 2.998 14.755 2 12 2A10 10 0 0 0 2.86 7.642l3.402 2.646c.809-2.423 3.07-4.226 5.738-4.226Z" fill="#EA4335"/>
</svg>
